<?xml version="1.0" encoding="iso-8859-1"?>
<!-- Generator: Adobe Illustrator 19.0.0, SVG Export Plug-In . SVG Version: 6.00 Build 0)  -->
<svg version="1.1" id="Layer_1" xmlns="http://www.w3.org/2000/svg" xmlns:xlink="http://www.w3.org/1999/xlink" x="0px" y="0px"
	 viewBox="0 0 512 512" style="enable-background:new 0 0 512 512;" xml:space="preserve">
<g>
	<g>
		<g>
			<path d="M272.85,0C174.529,0,70.149,23.484,68.144,67.004c-11.836,65.143-48.546,278.212-27.307,303.659
				c2.586,3.098,6.093,4.804,9.89,4.804c12.117,0,26.564-9.455,44.817-122.368c9.25-57.199,15.07-115.14,15.13-115.712
				c0.469-4.693-2.953-8.875-7.637-9.344c-4.727-0.486-8.875,2.953-9.344,7.637c-9.412,94.182-27.307,199.97-41.335,220.075
				c-6.605-26.351,8.166-146.33,28.416-262.4c21.094,19.294,63.616,29.756,89.677,34.551V179.2c0,14.114,11.486,25.6,25.6,25.6
				c2.995,0,5.871-0.512,8.533-1.459v1.459c0,18.825,15.309,34.133,34.133,34.133c18.825,0,34.133-15.309,34.133-34.133v-18.526
				c2.671,0.947,5.538,1.459,8.533,1.459c14.114,0,25.6-11.486,25.6-25.6v-26.505c24.03-1.271,47.309-3.917,68.267-7.731v17.169
				c0,14.114,11.486,25.6,25.6,25.6s25.6-11.486,25.6-25.6V114.56c14.421-5.248,25.728-11.238,34.133-17.749V179.2
				c0,13.423-29.457,31.855-95.266,42.786c-4.122,0.683-7.134,4.241-7.134,8.414v170.667c0,2.509,1.101,4.89,3.012,6.511
				c1.553,1.314,3.516,2.022,5.521,2.022c0.469,0,0.93-0.034,1.399-0.12c28.169-4.668,69.47-14.089,92.467-31.266v65.519
				c0,21.376-71.415,51.2-187.733,51.2s-187.733-29.824-187.733-51.2V384c0-4.71-3.814-8.533-8.533-8.533S68.05,379.29,68.05,384
				v59.733c0,44.339,105.515,68.267,204.8,68.267s204.8-23.927,204.8-68.267V68.267C477.65,23.927,372.135,0,272.85,0z
				 M460.583,349.867c0,12.732-26.479,29.961-85.333,41.028V237.577c27.674-5.026,64.213-14.302,85.333-30.106V349.867z
				 M415.22,100.403c-3.49,1.161-5.837,4.429-5.837,8.098v36.565c0,4.702-3.823,8.533-8.533,8.533c-4.71,0-8.533-3.831-8.533-8.533
				v-27.529c0-2.569-1.161-5.001-3.149-6.622c-1.997-1.621-4.625-2.244-7.125-1.732c-24.875,5.197-53.897,8.576-83.934,9.771
				c-4.574,0.179-8.192,3.942-8.192,8.525v34.654c0,4.702-3.823,8.533-8.533,8.533c-4.71,0-8.533-3.831-8.533-8.533
				c0-4.71-3.814-8.533-8.533-8.533s-8.533,3.823-8.533,8.533V204.8c0,9.412-7.654,17.067-17.067,17.067
				c-9.404,0-17.067-7.654-17.067-17.067v-25.6c0-4.71-3.814-8.533-8.533-8.533s-8.533,3.823-8.533,8.533
				c0,4.702-3.823,8.533-8.533,8.533s-8.533-3.831-8.533-8.533v-48.614c24.081,3.499,49.766,5.538,76.689,5.896h0.111
				c4.668,0,8.474-3.746,8.533-8.422c0.06-4.71-3.712-8.585-8.422-8.644c-29.756-0.393-58.027-2.782-84.028-7.1
				c-0.009,0-0.026,0.009-0.034,0c-65.451-10.871-95.249-30.455-95.249-44.049c0-21.376,71.415-51.2,187.733-51.2
				s187.733,29.824,187.733,51.2C460.583,78.746,443.201,91.059,415.22,100.403z"/>
			<path d="M272.85,307.2c0-16.563-23.142-43.196-27.785-48.367c-3.234-3.61-9.463-3.61-12.698,0
				c-4.642,5.171-27.785,31.804-27.785,48.367c0,18.825,15.309,34.133,34.133,34.133C257.541,341.333,272.85,326.025,272.85,307.2z
				 M221.65,307.2c0-5.436,8.021-18.142,17.067-29.457c9.045,11.315,17.067,24.021,17.067,29.457
				c0,9.412-7.654,17.067-17.067,17.067C229.313,324.267,221.65,316.612,221.65,307.2z"/>
		</g>
	</g>
</g>
<g>
</g>
<g>
</g>
<g>
</g>
<g>
</g>
<g>
</g>
<g>
</g>
<g>
</g>
<g>
</g>
<g>
</g>
<g>
</g>
<g>
</g>
<g>
</g>
<g>
</g>
<g>
</g>
<g>
</g>
</svg>
